<svg width="16" height="16" viewBox="0 0 16 16" fill="none" xmlns="http://www.w3.org/2000/svg">
<circle cx="8" cy="8" r="8" fill="#234E71"/>
<path d="M10.6488 4.78426C10.5334 4.78426 10.4206 4.81845 10.3246 4.88253C10.2287 4.9466 10.1539 5.03767 10.1097 5.14421C10.0656 5.25076 10.054 5.368 10.0765 5.48111C10.0991 5.59421 10.1546 5.69811 10.2362 5.77966C10.3178 5.8612 10.4218 5.91674 10.5349 5.93923C10.6481 5.96173 10.7654 5.95018 10.872 5.90605C10.9786 5.86192 11.0698 5.78718 11.1339 5.69129C11.198 5.59541 11.2322 5.48267 11.2322 5.36735C11.2322 5.2127 11.1707 5.06439 11.0613 4.95504C10.9519 4.84569 10.8035 4.78426 10.6488 4.78426Z" fill="white"/>
<path d="M8.04083 5.5481C7.55173 5.54696 7.07332 5.69108 6.66634 5.96218C6.25936 6.23328 5.94215 6.61912 5.75499 7.07073C5.56783 7.52234 5.51915 8.01935 5.61514 8.49865C5.71114 8.97796 5.94746 9.41795 6.29413 9.76277C6.64079 10.1076 7.08216 10.3417 7.5622 10.4353C8.04223 10.529 8.53929 10.478 8.99026 10.2888C9.44124 10.0996 9.8258 9.78075 10.0951 9.37272C10.3644 8.96469 10.5064 8.48588 10.5029 7.99708C10.4983 7.34698 10.2371 6.72498 9.77599 6.26637C9.31492 5.80776 8.69133 5.54963 8.04083 5.5481ZM8.04083 9.58892C7.72787 9.59007 7.42161 9.49838 7.16083 9.32545C6.90006 9.15252 6.6965 8.90614 6.57594 8.61751C6.45537 8.32887 6.42323 8.01097 6.48357 7.70406C6.54392 7.39715 6.69404 7.11505 6.91493 6.89347C7.13581 6.6719 7.41753 6.52082 7.72439 6.45937C8.03125 6.39793 8.34945 6.42888 8.6387 6.54831C8.92795 6.66773 9.17523 6.87026 9.34922 7.13025C9.52321 7.39023 9.61609 7.69597 9.61609 8.00875C9.61152 8.42433 9.4439 8.82151 9.1493 9.11485C8.85471 9.40818 8.45667 9.57423 8.04083 9.57726V9.58892Z" fill="white"/>
<path d="M9.99534 13H6.00467C5.20825 12.9985 4.4449 12.6816 3.88175 12.1188C3.3186 11.5559 3.00154 10.793 3 9.99708V6.00292C3.00154 5.20697 3.3186 4.44406 3.88175 3.88124C4.4449 3.31842 5.20825 3.00154 6.00467 3H9.99534C10.7917 3.00154 11.5551 3.31842 12.1183 3.88124C12.6814 4.44406 12.9985 5.20697 13 6.00292V9.99708C12.9985 10.793 12.6814 11.5559 12.1183 12.1188C11.5551 12.6816 10.7917 12.9985 9.99534 13ZM6.00467 3.93878C5.45738 3.94031 4.93294 4.15828 4.54595 4.54505C4.15896 4.93182 3.94086 5.45595 3.93932 6.00292V9.99708C3.94087 10.5435 4.15915 11.067 4.54631 11.4529C4.93347 11.8387 5.45791 12.0554 6.00467 12.0554H9.99534C10.5421 12.0554 11.0665 11.8387 11.4537 11.4529C11.8409 11.067 12.0591 10.5435 12.0607 9.99708V6.00292C12.0591 5.45595 11.841 4.93182 11.4541 4.54505C11.0671 4.15828 10.5426 3.94031 9.99534 3.93878H6.00467Z" fill="white"/>
</svg>
