<svg width="16" height="16" viewBox="0 0 16 16" fill="none" xmlns="http://www.w3.org/2000/svg">
<circle cx="8" cy="8" r="8" fill="#234E71"/>
<path d="M4.11382 6.1431H5.62602V11.4999H4.11382V6.1431ZM4.87805 3.5C5.05499 3.49769 5.22853 3.55278 5.37647 3.65823C5.5244 3.76368 5.63999 3.91469 5.70844 4.09191C5.77689 4.26914 5.79507 4.46451 5.76067 4.65303C5.72627 4.84155 5.64084 5.01462 5.51533 5.15009C5.38982 5.28556 5.22994 5.37727 5.05615 5.41347C4.88237 5.44967 4.70259 5.4287 4.53984 5.35327C4.37709 5.27784 4.23878 5.15136 4.1426 4.99004C4.04643 4.82872 3.99678 4.6399 4 4.44775C4.00284 4.19633 4.09643 3.95616 4.26063 3.77892C4.42484 3.60168 4.64654 3.50152 4.87805 3.5Z" fill="white"/>
<path d="M6.66652 5.85949H8.31688V6.62723C8.48388 6.34188 8.72285 6.10748 9.00886 5.94848C9.29488 5.78949 9.61746 5.71172 9.94297 5.72328C11.6783 5.72328 11.9999 6.88728 11.9999 8.40419V11.4999H10.307V8.7571C10.307 8.13795 10.307 7.26495 9.4151 7.26495C8.52317 7.26495 8.38362 7.97698 8.38362 8.71376V11.4999H6.66652V5.85949Z" fill="white"/>
</svg>
