<svg width="95" height="37" viewBox="0 0 95 37" fill="none" xmlns="http://www.w3.org/2000/svg">
<path d="M1.66385 25.3024H15.9676V20.7402H6.8701V6.51693H1.66385V25.3024ZM26.5726 25.6781C32.3692 25.6781 36.7167 21.3038 36.7167 15.9097V15.856C36.7167 10.4619 32.4229 6.14122 26.6263 6.14122C20.8296 6.14122 16.4821 10.5155 16.4821 15.9097V15.9633C16.4821 21.3574 20.7759 25.6781 26.5726 25.6781ZM26.6263 20.9817C23.7816 20.9817 21.8226 18.6201 21.8226 15.9097V15.856C21.8226 13.1455 23.7279 10.8376 26.5726 10.8376C29.4441 10.8376 31.4031 13.1992 31.4031 15.9097V15.9633C31.4031 18.6738 29.4977 20.9817 26.6263 20.9817ZM43.0937 25.3024H48.3268V18.1907L55.4653 6.51693H49.6418L45.7505 13.3602L41.8861 6.51693H35.9552L43.0937 18.2712V25.3024ZM52.6019 25.3024H58.0766L59.4184 21.9478H66.6642L68.0328 25.3024H73.6148L65.6176 6.38275H60.5992L52.6019 25.3024ZM60.948 17.8955L63.0681 12.5551L65.1613 17.8955H60.948ZM75.4376 25.3024H89.7413V20.7402H80.6438V6.51693H75.4376V25.3024Z" fill="white"/>
<path d="M4.75218 33.6912L4.51423 33.4601C4.27402 33.7003 4.027 33.8839 3.77319 34.0108C3.51938 34.1377 3.22024 34.2011 2.87578 34.2011C2.59025 34.2011 2.3251 34.1467 2.08035 34.038C1.83561 33.9247 1.62259 33.7728 1.44129 33.5825C1.26453 33.3876 1.12403 33.161 1.01978 32.9026C0.915537 32.6397 0.863415 32.3587 0.863415 32.0596V32.046C0.863415 31.7469 0.913271 31.4681 1.01298 31.2098C1.11723 30.9514 1.25773 30.7271 1.43449 30.5367C1.61579 30.3418 1.82881 30.19 2.07356 30.0812C2.3183 29.9724 2.58345 29.9181 2.86899 29.9181C3.04575 29.9181 3.20891 29.9362 3.35848 29.9724C3.51258 30.0087 3.65308 30.0586 3.77999 30.122C3.91143 30.1809 4.0338 30.2534 4.14711 30.3396C4.26042 30.4257 4.3692 30.5186 4.47344 30.6183L4.72499 30.36C4.60261 30.2467 4.47571 30.1447 4.34427 30.054C4.21736 29.9588 4.07913 29.8773 3.92956 29.8093C3.78452 29.7413 3.62589 29.6892 3.45366 29.6529C3.28143 29.6167 3.08881 29.5985 2.87578 29.5985C2.53132 29.5985 2.21406 29.6642 1.92399 29.7957C1.63392 29.9226 1.38237 30.0993 1.16935 30.326C0.960861 30.5481 0.79543 30.8087 0.673056 31.1078C0.555215 31.4069 0.496294 31.7242 0.496294 32.0596V32.0732C0.496294 32.4131 0.555215 32.7327 0.673056 33.0318C0.790897 33.3309 0.954062 33.5915 1.16255 33.8136C1.37557 34.0312 1.62712 34.2034 1.91719 34.3303C2.20726 34.4572 2.52226 34.5207 2.86219 34.5207C3.07068 34.5207 3.2633 34.5003 3.44006 34.4595C3.61683 34.4187 3.77999 34.362 3.92956 34.2895C4.08366 34.217 4.22643 34.1309 4.35787 34.0312C4.49384 33.9269 4.62528 33.8136 4.75218 33.6912ZM9.62185 34.4391V34.1128H6.55571V32.2024H9.28193V31.876H6.55571V30.0064H9.58786V29.6801H6.20218V34.4391H9.62185ZM15.1077 34.4391L13.5373 32.4063C13.7367 32.3791 13.9203 32.3315 14.088 32.2636C14.2602 32.191 14.4075 32.0981 14.5299 31.9848C14.6568 31.8715 14.7542 31.7378 14.8222 31.5837C14.8947 31.4251 14.931 31.246 14.931 31.0466V31.033C14.931 30.8336 14.8902 30.6523 14.8086 30.4891C14.727 30.3214 14.6115 30.1787 14.4619 30.0608C14.3168 29.9385 14.1401 29.8455 13.9316 29.7821C13.7231 29.7141 13.4897 29.6801 13.2313 29.6801H11.2326V34.4391H11.5861V32.4675H13.143L14.659 34.4391H15.1077ZM14.5775 31.0602C14.5775 31.2324 14.5412 31.3865 14.4687 31.5225C14.4007 31.6539 14.3055 31.7673 14.1831 31.8624C14.0608 31.9531 13.9135 32.0233 13.7412 32.0732C13.5735 32.123 13.39 32.148 13.1906 32.148H11.5861V30.0064H13.211C13.6461 30.0064 13.9815 30.0993 14.2171 30.2852C14.4574 30.471 14.5775 30.7248 14.5775 31.0466V31.0602ZM19.8864 30.0064V29.6801H16.2152V30.0064H17.874V34.4391H18.2275V30.0064H19.8864ZM21.8405 34.4391V29.6801H21.487V34.4391H21.8405ZM27.1326 30.0064V29.6801H23.7809V34.4391H24.1345V32.2839H26.8267V31.9576H24.1345V30.0064H27.1326ZM29.1195 34.4391V29.6801H28.766V34.4391H29.1195ZM35.105 33.6912L34.8671 33.4601C34.6269 33.7003 34.3799 33.8839 34.126 34.0108C33.8722 34.1377 33.5731 34.2011 33.2286 34.2011C32.9431 34.2011 32.6779 34.1467 32.4332 34.038C32.1885 33.9247 31.9754 33.7728 31.7941 33.5825C31.6174 33.3876 31.4769 33.161 31.3726 32.9026C31.2684 32.6397 31.2163 32.3587 31.2163 32.0596V32.046C31.2163 31.7469 31.2661 31.4681 31.3658 31.2098C31.4701 30.9514 31.6106 30.7271 31.7873 30.5367C31.9686 30.3418 32.1817 30.19 32.4264 30.0812C32.6711 29.9724 32.9363 29.9181 33.2218 29.9181C33.3986 29.9181 33.5618 29.9362 33.7113 29.9724C33.8654 30.0087 34.0059 30.0586 34.1328 30.122C34.2643 30.1809 34.3866 30.2534 34.5 30.3396C34.6133 30.4257 34.722 30.5186 34.8263 30.6183L35.0778 30.36C34.9555 30.2467 34.8286 30.1447 34.6971 30.054C34.5702 29.9588 34.432 29.8773 34.2824 29.8093C34.1374 29.7413 33.9787 29.6892 33.8065 29.6529C33.6343 29.6167 33.4417 29.5985 33.2286 29.5985C32.8842 29.5985 32.5669 29.6642 32.2768 29.7957C31.9868 29.9226 31.7352 30.0993 31.5222 30.326C31.3137 30.5481 31.1483 30.8087 31.0259 31.1078C30.9081 31.4069 30.8491 31.7242 30.8491 32.0596V32.0732C30.8491 32.4131 30.9081 32.7327 31.0259 33.0318C31.1437 33.3309 31.3069 33.5915 31.5154 33.8136C31.7284 34.0312 31.98 34.2034 32.27 34.3303C32.5601 34.4572 32.8751 34.5207 33.215 34.5207C33.4235 34.5207 33.6161 34.5003 33.7929 34.4595C33.9697 34.4187 34.1328 34.362 34.2824 34.2895C34.4365 34.217 34.5793 34.1309 34.7107 34.0312C34.8467 33.9269 34.9781 33.8136 35.105 33.6912ZM40.9197 34.4391L38.7034 29.6461H38.3634L36.1471 34.4391H36.5142L37.1193 33.1066H39.9271L40.5322 34.4391H40.9197ZM39.7775 32.787H37.2689L38.5266 30.0336L39.7775 32.787ZM46.5152 32.0596V32.046C46.5152 31.7106 46.454 31.4001 46.3316 31.1146C46.2092 30.8245 46.0347 30.573 45.8081 30.36C45.586 30.1469 45.3186 29.9815 45.0059 29.8637C44.6977 29.7413 44.3578 29.6801 43.9861 29.6801H42.402V34.4391H43.9861C44.3578 34.4391 44.6977 34.3779 45.0059 34.2555C45.3186 34.1332 45.586 33.9655 45.8081 33.7524C46.0347 33.5394 46.2092 33.2879 46.3316 32.9978C46.454 32.7077 46.5152 32.395 46.5152 32.0596ZM46.148 32.0732C46.148 32.3587 46.0959 32.6261 45.9917 32.8754C45.892 33.1202 45.7492 33.3355 45.5634 33.5213C45.3775 33.7026 45.1509 33.8476 44.8835 33.9564C44.6161 34.0606 44.317 34.1128 43.9861 34.1128H42.7556V30.0064H43.9861C44.317 30.0064 44.6161 30.0608 44.8835 30.1696C45.1509 30.2784 45.3775 30.4257 45.5634 30.6115C45.7492 30.7973 45.892 31.0149 45.9917 31.2642C46.0959 31.5134 46.148 31.7786 46.148 32.0596V32.0732ZM52.7714 32.0596C52.7759 32.0551 52.7759 32.0505 52.7714 32.046C52.7714 31.7197 52.7147 31.4092 52.6014 31.1146C52.4881 30.82 52.3272 30.5617 52.1187 30.3396C51.9102 30.1129 51.6587 29.9339 51.3641 29.8025C51.0695 29.6665 50.7431 29.5985 50.3851 29.5985C50.0225 29.5985 49.6939 29.6665 49.3993 29.8025C49.1047 29.9339 48.8531 30.1129 48.6446 30.3396C48.4362 30.5662 48.273 30.8291 48.1552 31.1282C48.0418 31.4228 47.9852 31.7333 47.9852 32.0596V32.0732C47.9852 32.3995 48.0418 32.71 48.1552 33.0046C48.2685 33.2992 48.4294 33.5598 48.6378 33.7864C48.8463 34.0085 49.0956 34.1875 49.3857 34.3235C49.6803 34.455 50.0089 34.5207 50.3715 34.5207C50.7295 34.5207 51.0559 34.455 51.3505 34.3235C51.6496 34.1875 51.9034 34.0062 52.1119 33.7796C52.3204 33.553 52.4813 33.2924 52.5946 32.9978C52.7124 32.6987 52.7714 32.3859 52.7714 32.0596ZM52.4042 32.0732C52.4042 32.3678 52.3544 32.6443 52.2547 32.9026C52.155 33.161 52.0145 33.3876 51.8332 33.5825C51.6564 33.7728 51.4434 33.9247 51.1941 34.038C50.9494 34.1467 50.6797 34.2011 50.3851 34.2011C50.0905 34.2011 49.8185 34.1445 49.5693 34.0312C49.32 33.9179 49.1047 33.766 48.9234 33.5757C48.7466 33.3808 48.6061 33.1542 48.5019 32.8958C48.4022 32.6329 48.3523 32.3542 48.3523 32.0596V32.046C48.3523 31.7514 48.4022 31.4749 48.5019 31.2166C48.6016 30.9582 48.7398 30.7339 48.9166 30.5435C49.0979 30.3486 49.3109 30.1968 49.5557 30.088C49.8049 29.9747 50.0769 29.9181 50.3715 29.9181C50.6661 29.9181 50.938 29.9747 51.1873 30.088C51.4366 30.2013 51.6496 30.3554 51.8264 30.5503C52.0077 30.7407 52.1482 30.9673 52.2479 31.2302C52.3521 31.4885 52.4042 31.765 52.4042 32.0596V32.0732ZM57.6033 33.2086V33.195C57.6033 32.846 57.4809 32.5695 57.2362 32.3655C56.9914 32.157 56.5926 31.9961 56.0396 31.8828C55.7586 31.8239 55.5275 31.7605 55.3462 31.6925C55.1649 31.6245 55.0221 31.5497 54.9178 31.4681C54.8181 31.382 54.7479 31.2891 54.7071 31.1894C54.6708 31.0851 54.6527 30.9696 54.6527 30.8427V30.8291C54.6527 30.7067 54.6799 30.5911 54.7343 30.4823C54.7887 30.3736 54.8657 30.2784 54.9654 30.1968C55.0697 30.1152 55.1921 30.0518 55.3326 30.0064C55.4776 29.9566 55.6385 29.9317 55.8153 29.9317C56.0781 29.9317 56.3229 29.9724 56.5495 30.054C56.7806 30.1356 57.0095 30.2738 57.2362 30.4687L57.4605 30.19C57.2203 29.9951 56.9733 29.8501 56.7195 29.7549C56.4702 29.6597 56.1733 29.6121 55.8289 29.6121C55.6068 29.6121 55.4028 29.6438 55.217 29.7073C55.0312 29.7708 54.8703 29.8591 54.7343 29.9724C54.5983 30.0858 54.4918 30.2195 54.4148 30.3736C54.3377 30.5231 54.2992 30.6863 54.2992 30.8631V30.8766C54.2992 31.0579 54.3286 31.2188 54.3876 31.3593C54.4465 31.4998 54.5394 31.6245 54.6663 31.7333C54.7977 31.8375 54.9654 31.9304 55.1694 32.012C55.3733 32.0891 55.6181 32.157 55.9036 32.216C56.1756 32.2704 56.3977 32.3315 56.5699 32.3995C56.7421 32.463 56.8781 32.5355 56.9778 32.6171C57.0821 32.6987 57.1523 32.7893 57.1886 32.889C57.2294 32.9887 57.2497 33.102 57.2497 33.2289V33.2425C57.2497 33.3785 57.2203 33.5054 57.1614 33.6233C57.1024 33.7366 57.0209 33.8363 56.9166 33.9224C56.8124 34.004 56.6855 34.0697 56.5359 34.1196C56.3863 34.1649 56.2232 34.1875 56.0464 34.1875C55.8696 34.1875 55.7065 34.1739 55.5569 34.1467C55.4073 34.115 55.2646 34.072 55.1286 34.0176C54.9926 33.9587 54.8589 33.8861 54.7275 33.8C54.6006 33.7094 54.4714 33.6029 54.34 33.4805L54.1088 33.7456C54.3944 33.9994 54.689 34.1898 54.9926 34.3167C55.3008 34.4436 55.6453 34.5071 56.026 34.5071C56.2572 34.5071 56.4679 34.4753 56.6583 34.4119C56.8532 34.3484 57.0186 34.2601 57.1546 34.1467C57.2951 34.0334 57.4038 33.8975 57.4809 33.7388C57.5625 33.5757 57.6033 33.3989 57.6033 33.2086ZM65.8666 32.0596V32.046C65.8666 31.7106 65.8054 31.4001 65.683 31.1146C65.5606 30.8245 65.3862 30.573 65.1595 30.36C64.9374 30.1469 64.67 29.9815 64.3573 29.8637C64.0491 29.7413 63.7092 29.6801 63.3375 29.6801H61.7535V34.4391H63.3375C63.7092 34.4391 64.0491 34.3779 64.3573 34.2555C64.67 34.1332 64.9374 33.9655 65.1595 33.7524C65.3862 33.5394 65.5606 33.2879 65.683 32.9978C65.8054 32.7077 65.8666 32.395 65.8666 32.0596ZM65.4995 32.0732C65.4995 32.3587 65.4473 32.6261 65.3431 32.8754C65.2434 33.1202 65.1006 33.3355 64.9148 33.5213C64.729 33.7026 64.5023 33.8476 64.2349 33.9564C63.9675 34.0606 63.6684 34.1128 63.3375 34.1128H62.107V30.0064H63.3375C63.6684 30.0064 63.9675 30.0608 64.2349 30.1696C64.5023 30.2784 64.729 30.4257 64.9148 30.6115C65.1006 30.7973 65.2434 31.0149 65.3431 31.2642C65.4473 31.5134 65.4995 31.7786 65.4995 32.0596V32.0732ZM67.9485 34.4391V29.6801H67.595V34.4391H67.9485ZM73.9408 33.8068V31.9712H72.01V32.2975H73.6009V33.6641C73.5148 33.7366 73.4151 33.8068 73.3017 33.8748C73.1884 33.9383 73.0661 33.9949 72.9346 34.0448C72.8077 34.0946 72.6718 34.1354 72.5267 34.1671C72.3817 34.1943 72.2344 34.2079 72.0848 34.2079C71.7675 34.2079 71.482 34.1535 71.2282 34.0448C70.9789 33.936 70.7659 33.7864 70.5891 33.5961C70.4124 33.4057 70.2764 33.1791 70.1812 32.9162C70.0906 32.6533 70.0452 32.3678 70.0452 32.0596V32.046C70.0452 31.7605 70.0928 31.4885 70.188 31.2302C70.2832 30.9718 70.4169 30.7452 70.5891 30.5503C70.7659 30.3554 70.9744 30.2013 71.2146 30.088C71.4548 29.9747 71.72 29.9181 72.01 29.9181C72.3681 29.9181 72.665 29.9724 72.9006 30.0812C73.1409 30.19 73.3539 30.326 73.5397 30.4891L73.7708 30.224C73.653 30.1243 73.5306 30.0359 73.4037 29.9588C73.2814 29.8818 73.1499 29.8161 73.0094 29.7617C72.8734 29.7073 72.7239 29.6665 72.5607 29.6393C72.4021 29.6121 72.2253 29.5985 72.0304 29.5985C71.6769 29.5985 71.3551 29.6665 71.065 29.8025C70.775 29.9385 70.5257 30.1197 70.3172 30.3464C70.1132 30.573 69.9546 30.8359 69.8413 31.135C69.7325 31.4296 69.6781 31.7378 69.6781 32.0596V32.0732C69.6781 32.4086 69.7325 32.7259 69.8413 33.025C69.9501 33.3196 70.1064 33.5779 70.3104 33.8C70.5143 34.0221 70.7636 34.1989 71.0582 34.3303C71.3574 34.4572 71.695 34.5207 72.0712 34.5207C72.461 34.5207 72.8145 34.4504 73.1318 34.3099C73.4536 34.1649 73.7233 33.9972 73.9408 33.8068ZM76.0972 34.4391V29.6801H75.7436V34.4391H76.0972ZM81.3689 30.0064V29.6801H77.6976V30.0064H79.3565V34.4391H79.71V30.0064H81.3689ZM86.6758 34.4391L84.4594 29.6461H84.1195L81.9032 34.4391H82.2703L82.8754 33.1066H85.6832L86.2882 34.4391H86.6758ZM85.5336 32.787H83.0249L84.2827 30.0336L85.5336 32.787ZM88.5592 34.4391V29.6801H88.2057V34.4391H88.5592ZM93.6881 33.2086V33.195C93.6881 32.846 93.5658 32.5695 93.321 32.3655C93.0763 32.157 92.6774 31.9961 92.1245 31.8828C91.8435 31.8239 91.6123 31.7605 91.431 31.6925C91.2497 31.6245 91.107 31.5497 91.0027 31.4681C90.903 31.382 90.8327 31.2891 90.792 31.1894C90.7557 31.0851 90.7376 30.9696 90.7376 30.8427V30.8291C90.7376 30.7067 90.7648 30.5911 90.8192 30.4823C90.8735 30.3736 90.9506 30.2784 91.0503 30.1968C91.1545 30.1152 91.2769 30.0518 91.4174 30.0064C91.5625 29.9566 91.7234 29.9317 91.9001 29.9317C92.163 29.9317 92.4077 29.9724 92.6344 30.054C92.8655 30.1356 93.0944 30.2738 93.321 30.4687L93.5454 30.19C93.3052 29.9951 93.0581 29.8501 92.8043 29.7549C92.555 29.6597 92.2582 29.6121 91.9137 29.6121C91.6916 29.6121 91.4877 29.6438 91.3018 29.7073C91.116 29.7708 90.9551 29.8591 90.8192 29.9724C90.6832 30.0858 90.5767 30.2195 90.4996 30.3736C90.4226 30.5231 90.384 30.6863 90.384 30.8631V30.8766C90.384 31.0579 90.4135 31.2188 90.4724 31.3593C90.5313 31.4998 90.6243 31.6245 90.7512 31.7333C90.8826 31.8375 91.0503 31.9304 91.2543 32.012C91.4582 32.0891 91.703 32.157 91.9885 32.216C92.2604 32.2704 92.4825 32.3315 92.6548 32.3995C92.827 32.463 92.963 32.5355 93.0627 32.6171C93.1669 32.6987 93.2372 32.7893 93.2734 32.889C93.3142 32.9887 93.3346 33.102 93.3346 33.2289V33.2425C93.3346 33.3785 93.3052 33.5054 93.2462 33.6233C93.1873 33.7366 93.1057 33.8363 93.0015 33.9224C92.8972 34.004 92.7703 34.0697 92.6208 34.1196C92.4712 34.1649 92.308 34.1875 92.1313 34.1875C91.9545 34.1875 91.7913 34.1739 91.6418 34.1467C91.4922 34.115 91.3494 34.072 91.2135 34.0176C91.0775 33.9587 90.9438 33.8861 90.8124 33.8C90.6854 33.7094 90.5563 33.6029 90.4248 33.4805L90.1937 33.7456C90.4792 33.9994 90.7738 34.1898 91.0775 34.3167C91.3857 34.4436 91.7302 34.5071 92.1109 34.5071C92.342 34.5071 92.5528 34.4753 92.7431 34.4119C92.938 34.3484 93.1035 34.2601 93.2394 34.1467C93.3799 34.0334 93.4887 33.8975 93.5658 33.7388C93.6473 33.5757 93.6881 33.3989 93.6881 33.2086Z" fill="white"/>
</svg>
