<svg width="16" height="16" viewBox="0 0 16 16" fill="none" xmlns="http://www.w3.org/2000/svg">
<circle cx="8" cy="8" r="8" fill="#234E71"/>
<path d="M9 7C9 7.55228 8.55228 8 8 8C7.44772 8 7 7.55228 7 7C7 6.44772 7.44772 6 8 6C8.55228 6 9 6.44772 9 7Z" fill="#F9F9F9"/>
<path d="M10.5 7C10.5 7.28913 10.3605 7.71946 10.0867 8.25141C9.8212 8.76719 9.46176 9.31811 9.09407 9.82939C8.72768 10.3389 8.36022 10.7992 8.0838 11.1327C8.05481 11.1676 8.02684 11.2012 8 11.2332C7.97316 11.2012 7.94519 11.1676 7.9162 11.1327C7.63978 10.7992 7.27232 10.3389 6.90593 9.82939C6.53824 9.31811 6.1788 8.76719 5.91332 8.25141C5.63951 7.71946 5.5 7.28913 5.5 7C5.5 5.61929 6.61929 4.5 8 4.5C9.38071 4.5 10.5 5.61929 10.5 7Z" stroke="#F9F9F9"/>
</svg>
